HIERARCHY
ROOT Hips
{
	OFFSET 0.000000 0.000000 0.000000
	CHANNELS 6 Xposition Yposition Zposition Zrotation Yrotation Xrotation 
	JOINT RightUpLeg
	{
		OFFSET -2.858947 0.000000 0.000000
		CHANNELS 3 Zrotation Yrotation Xrotation
		JOINT RightLeg
		{
			OFFSET 0.000000 -9.173077 0.000000
			CHANNELS 3 Zrotation Yrotation Xrotation
			JOINT RightFoot
			{
				OFFSET 0.000000 -8.989213 0.000000
				CHANNELS 3 Zrotation Yrotation Xrotation
				End Site
				{
					OFFSET 0.000000 0.000000 0.000000
				}
			}
		}
	}
	JOINT LeftUpLeg
	{
		OFFSET 2.858947 0.000000 0.000000
		CHANNELS 3 Zrotation Yrotation Xrotation
		JOINT LeftLeg
		{
			OFFSET 0.000000 -9.173077 0.000000
			CHANNELS 3 Zrotation Yrotation Xrotation
			JOINT LeftFoot
			{
				OFFSET 0.000000 -8.989213 0.000000
				CHANNELS 3 Zrotation Yrotation Xrotation
				End Site
				{
					OFFSET 0.000000 0.000000 0.000000
				}
			}
		}
	}
	JOINT Spine
	{
		OFFSET 0.000000 5.045599 0.000000
		CHANNELS 3 Zrotation Yrotation Xrotation
		JOINT Spine1
		{
			OFFSET 0.000000 5.170119 0.000000
			CHANNELS 3 Zrotation Yrotation Xrotation
			JOINT Neck
			{
				OFFSET 0.000000 2.380465 0.000000
				CHANNELS 3 Zrotation Yrotation Xrotation
				JOINT Head
				{
					OFFSET 0.000000 2.353345 0.000000
					CHANNELS 3 Zrotation Yrotation Xrotation
					End Site
					{
						OFFSET 0.000000 0.000000 0.000000
					}
				}
			}
			JOINT LeftArm
			{
				OFFSET 3.216773 0.000000 0.000000
				CHANNELS 3 Zrotation Yrotation Xrotation
				JOINT LeftForeArm
				{
					OFFSET 5.783032 0.000000 0.000000
					CHANNELS 3 Zrotation Yrotation Xrotation
					JOINT LeftHand
					{
						OFFSET 5.029427 0.000000 0.000000
						CHANNELS 3 Zrotation Yrotation Xrotation
						End Site
						{
							OFFSET 0.000000 0.000000 0.000000
						}
					}
				}
			}
			JOINT RightArm
			{
				OFFSET -3.216773 0.000000 0.000000
				CHANNELS 3 Zrotation Yrotation Xrotation
				JOINT RightForeArm
				{
					OFFSET -5.783032 0.000000 0.000000
					CHANNELS 3 Zrotation Yrotation Xrotation
					JOINT RightHand
					{
						OFFSET -5.029427 0.000000 0.000000
						CHANNELS 3 Zrotation Yrotation Xrotation
						End Site
						{
							OFFSET 0.000000 0.000000 0.000000
						}
					}
				}
			}
		}
	}
}
MOTION
Frames: 14
Frame Time: 0.041667
3.748909 1.439579 -1.712883 3.620077 3.994546 -172.941647 -164.085815 61.794033 -172.733599 140.129923 -84.075531 -124.220268 0.000000 0.000000 0.000000 44.263867 -82.571591 -35.753602 154.098780 -13.031443 176.141221 0.000000 0.000000 0.000000 50.979166 30.047074 53.618368 -9.053602 -48.245202 3.524177 134.078198 -15.855487 -107.431007 0.000000 0.000000 0.000000 -79.890462 -22.684704 -33.335291 -1.859881 -15.757564 43.760373 0.000000 0.000000 0.000000 82.250128 23.906693 -62.729181 19.494688 8.516536 142.996950 0.000000 0.000000 0.000000 
3.755343 1.451675 -1.727078 3.873085 4.860804 -175.042640 -168.376621 61.941749 -177.554811 139.815161 -84.410613 -124.312762 0.000000 0.000000 0.000000 22.320389 -84.344456 -13.459717 155.598908 -12.872681 176.149377 0.000000 0.000000 0.000000 50.975884 29.656640 54.052550 -8.893511 -48.333892 4.219816 134.026630 -16.545063 -107.435857 0.000000 0.000000 0.000000 -79.394133 -22.786368 -33.432827 -2.156287 -15.622432 42.983443 0.000000 0.000000 0.000000 82.104406 23.510467 -62.522985 20.646743 8.469312 143.852089 0.000000 0.000000 0.000000 
3.765076 1.469130 -1.752435 4.065841 5.575093 -177.515100 -173.283538 62.000708 176.857886 139.110354 -84.816770 -123.986771 0.000000 0.000000 0.000000 -14.663339 -84.742977 23.969663 157.293656 -12.658516 176.203130 0.000000 0.000000 0.000000 50.982748 29.025609 54.561457 -8.562928 -48.404352 4.732690 134.000757 -17.524626 -107.390859 0.000000 0.000000 0.000000 -78.878740 -22.721499 -33.641035 -2.531751 -15.611224 41.895930 0.000000 0.000000 0.000000 81.921145 22.804759 -62.377379 22.059158 8.535521 144.925768 0.000000 0.000000 0.000000 
3.778423 1.493792 -1.787568 4.072879 5.467067 -178.516474 -175.237697 62.187274 174.504189 139.848369 -85.114723 -124.928012 0.000000 0.000000 0.000000 -27.894745 -84.219176 37.534717 157.761852 -12.334883 176.067360 0.000000 0.000000 0.000000 50.914771 28.770833 54.486987 -8.366884 -48.220582 4.785158 134.068526 -17.849292 -107.529437 0.000000 0.000000 0.000000 -78.767470 -22.445733 -33.518115 -2.633817 -15.776883 41.289778 0.000000 0.000000 0.000000 81.783743 22.241570 -62.340714 22.122520 8.590540 145.360687 0.000000 0.000000 0.000000 
3.821560 1.564265 -1.885011 4.145215 5.406807 -179.497617 -176.815375 62.239006 172.826503 136.615108 -85.400102 -121.644467 0.000000 0.000000 0.000000 -40.392721 -83.766178 50.653619 158.069046 -12.155493 175.923680 0.000000 0.000000 0.000000 50.742660 28.480434 54.303965 -7.951064 -47.995179 5.714937 133.540471 -18.112077 -107.708340 0.000000 0.000000 0.000000 -77.981929 -22.990512 -34.055070 -4.524763 -15.707144 41.037839 0.000000 0.000000 0.000000 81.421838 21.964410 -62.799041 24.177376 8.480237 147.382478 0.000000 0.000000 0.000000 
3.860683 1.627485 -1.974600 4.204091 5.225491 179.898167 -177.570657 62.352332 172.062683 132.552061 -85.618539 -117.470019 0.000000 0.000000 0.000000 -48.554821 -83.492806 59.446394 158.385639 -12.183162 175.927942 0.000000 0.000000 0.000000 50.481242 28.263459 54.053571 -7.457277 -47.859098 6.580658 132.893065 -18.141971 -107.749683 0.000000 0.000000 0.000000 -77.087243 -23.618357 -34.709621 -6.777063 -15.536778 41.080248 0.000000 0.000000 0.000000 81.261493 21.572133 -63.166368 26.676929 8.383103 150.027127 0.000000 0.000000 0.000000 
3.880327 1.663265 -2.026711 4.227917 4.871972 179.961251 -177.404328 62.742275 172.024297 130.186438 -85.873079 -115.117292 0.000000 0.000000 0.000000 -50.303804 -83.539531 61.626215 158.314332 -12.409387 175.861293 0.000000 0.000000 0.000000 50.274185 28.188051 53.652341 -7.256735 -47.782402 6.366852 132.674089 -18.079203 -107.799988 0.000000 0.000000 0.000000 -77.145143 -23.152110 -34.375912 -7.556535 -15.846543 41.455092 0.000000 0.000000 0.000000 81.292823 20.535592 -63.122791 27.514106 8.481626 151.577471 0.000000 0.000000 0.000000 
3.929696 1.742084 -2.138344 4.137496 3.977019 -179.517288 -175.637563 63.163991 173.531570 124.230827 -85.948751 -108.712788 0.000000 0.000000 0.000000 -50.150876 -84.586190 62.012326 157.463154 -12.275971 175.853547 0.000000 0.000000 0.000000 49.763126 27.931727 52.999338 -6.746307 -47.563655 6.665131 131.922959 -17.617416 -107.636412 0.000000 0.000000 0.000000 -77.280080 -22.800835 -34.803625 -10.406226 -16.417461 42.773879 0.000000 0.000000 0.000000 81.387325 19.865154 -63.879146 30.032683 8.978880 154.021968 0.000000 0.000000 0.000000 
3.968615 1.804520 -2.227133 4.127483 3.334001 -179.368732 -174.910490 63.221255 173.767676 123.518411 -85.838061 -107.748427 0.000000 0.000000 0.000000 -50.320937 -85.360583 62.454000 156.505384 -12.105280 175.748513 0.000000 0.000000 0.000000 49.251149 27.653889 52.405234 -6.454611 -47.293176 7.439847 131.237386 -17.373315 -107.392888 0.000000 0.000000 0.000000 -77.680390 -22.561964 -35.380885 -13.178905 -16.872222 44.532369 0.000000 0.000000 0.000000 81.683892 19.660802 -64.550212 31.870947 9.583526 155.880025 0.000000 0.000000 0.000000 
4.000485 1.855814 -2.301156 4.161377 3.132545 -179.578091 -175.811023 63.192719 172.327558 130.225206 -85.828758 -114.574183 0.000000 0.000000 0.000000 -48.901098 -85.474804 61.075005 155.798896 -12.282389 175.758990 0.000000 0.000000 0.000000 49.046899 27.718750 52.256507 -6.412431 -47.082526 7.799063 131.078297 -17.482021 -107.148859 0.000000 0.000000 0.000000 -78.314765 -22.356797 -35.254622 -13.218244 -17.291754 45.226757 0.000000 0.000000 0.000000 82.043645 19.378150 -64.611971 32.021091 9.714652 157.181668 0.000000 0.000000 0.000000 
4.084764 1.981085 -2.478895 3.802764 2.142274 -179.020037 -174.733014 63.219165 172.697481 141.685676 -85.473206 -126.296755 0.000000 0.000000 0.000000 -44.758626 -86.876134 57.227594 154.690903 -12.028535 176.156835 0.000000 0.000000 0.000000 48.632132 27.614301 52.297563 -6.279472 -47.014217 8.799676 130.745489 -17.205405 -106.062162 0.000000 0.000000 0.000000 -79.258765 -22.299200 -35.690440 -14.927568 -19.151072 47.513661 0.000000 0.000000 0.000000 82.982318 20.136009 -64.828904 34.111754 9.959328 160.405312 0.000000 0.000000 0.000000 
4.158273 2.088763 -2.633093 3.438593 1.204247 -178.313945 -173.770108 63.463399 172.949938 147.786811 -85.250549 -132.769028 0.000000 0.000000 0.000000 -34.100317 -88.610127 46.878676 153.979307 -11.925716 176.705723 0.000000 0.000000 0.000000 48.228147 27.593604 52.266564 -6.365262 -47.040906 9.944727 130.404663 -17.035813 -104.851252 0.000000 0.000000 0.000000 -79.932037 -22.480786 -36.227723 -16.580197 -20.833749 50.180703 0.000000 0.000000 0.000000 83.865038 20.675063 -64.957694 37.147469 10.116653 163.817497 0.000000 0.000000 0.000000 
4.197738 2.147149 -2.717418 3.255005 0.962626 -178.051694 -173.506585 63.790497 172.920965 149.852247 -85.280253 -134.900403 0.000000 0.000000 0.000000 -14.100282 -89.041823 27.169343 154.141073 -12.184414 177.109824 0.000000 0.000000 0.000000 47.891149 27.776808 52.064934 -6.348698 -47.100561 10.034414 130.211956 -16.984360 -104.380822 0.000000 0.000000 0.000000 -80.070465 -22.366201 -35.865351 -16.398922 -21.311290 50.717775 0.000000 0.000000 0.000000 84.259338 19.819559 -64.706972 38.827535 9.779926 166.270068 0.000000 0.000000 0.000000 
4.275160 2.257729 -2.874849 2.647839 0.424525 -176.485996 -171.105992 64.300371 175.043910 160.841994 -84.723073 -146.351283 0.000000 0.000000 0.000000 95.988262 -88.379363 -82.880145 154.214757 -12.620896 177.731658 0.000000 0.000000 0.000000 46.989799 28.744571 51.715368 -5.736899 -47.335421 10.242804 129.568047 -16.207655 -102.801580 0.000000 0.000000 0.000000 -80.658742 -22.571677 -35.900881 -17.907544 -22.436533 52.669515 0.000000 0.000000 0.000000 84.913574 19.539305 -64.921665 41.333586 9.556240 168.607946 0.000000 0.000000 0.000000 
